<svg xmlns="http://www.w3.org/2000/svg" xmlns:xlink="http://www.w3.org/1999/xlink" version="1.1" width="536" height="312" name="peptidyl-trna-hydrolase_ML.svg" y="0" viewBox="0 0 536 312">
<polyline points="536,312 0,312 0,0 536,0 536,312" fill="white" />
<text x="438" y="35" fill="#000000" font-size="12" font-family="Arial" > YERPS</text>
<polyline points="433,43 433,30 433,30" fill="none" stroke="#000000" stroke-width="1" stroke-linecap="square"/>
<text x="438" y="61" fill="#000000" font-size="12" font-family="Arial" > YERPE</text>
<polyline points="433,44 433,56 433,56" fill="none" stroke="#000000" stroke-width="1" stroke-linecap="square"/>
<polyline points="359,62 359,43 433,43" fill="none" stroke="#000000" stroke-width="1" stroke-linecap="square"/>
<text x="427" y="87" fill="#000000" font-size="12" font-family="Arial" > SALTY</text>
<polyline points="359,63 359,82 422,82" fill="none" stroke="#000000" stroke-width="1" stroke-linecap="square"/>
<polyline points="297,85 297,62 359,62" fill="none" stroke="#000000" stroke-width="1" stroke-linecap="square"/>
<text x="454" y="113" fill="#000000" font-size="12" font-family="Arial" > PASMU</text>
<polyline points="297,86 297,108 449,108" fill="none" stroke="#000000" stroke-width="1" stroke-linecap="square"/>
<polyline points="190,109 190,85 297,85" fill="none" stroke="#000000" stroke-width="1" stroke-linecap="square"/>
<text x="361" y="139" fill="#000000" font-size="12" font-family="Arial" > NEIMA</text>
<polyline points="190,110 190,134 356,134" fill="none" stroke="#000000" stroke-width="1" stroke-linecap="square"/>
<polyline points="120,134 120,109 190,109" fill="none" stroke="#000000" stroke-width="1" stroke-linecap="square"/>
<text x="285" y="165" fill="#000000" font-size="12" font-family="Arial" > BURCA</text>
<polyline points="120,135 120,160 280,160" fill="none" stroke="#000000" stroke-width="1" stroke-linecap="square"/>
<polyline points="40,166 40,134 120,134" fill="none" stroke="#000000" stroke-width="1" stroke-linecap="square"/>
<text x="453" y="191" fill="#000000" font-size="12" font-family="Arial" > AGRRK</text>
<polyline points="257,199 257,186 448,186" fill="none" stroke="#000000" stroke-width="1" stroke-linecap="square"/>
<text x="387" y="217" fill="#000000" font-size="12" font-family="Arial" > BRAJA</text>
<polyline points="257,200 257,212 382,212" fill="none" stroke="#000000" stroke-width="1" stroke-linecap="square"/>
<polyline points="40,167 40,199 257,199" fill="none" stroke="#000000" stroke-width="1" stroke-linecap="square"/>
<text x="414" y="36" fill="#000000" font-size="9" font-family="Arial" >100</text>
<text x="345" y="55" fill="#000000" font-size="9" font-family="Arial" >96</text>
<text x="283" y="78" fill="#000000" font-size="9" font-family="Arial" >95</text>
<text x="176" y="102" fill="#000000" font-size="9" font-family="Arial" >81</text>
<text x="238" y="215" fill="#000000" font-size="9" font-family="Arial" >100</text>
<line x1="60" y1="243" x2="158" y2="243" stroke="#000000" stroke-width="1" stroke-linecap="square"/>
<line x1="60" y1="239" x2="60" y2="247" stroke="#000000" stroke-width="1" stroke-linecap="square"/>
<line x1="158" y1="239" x2="158" y2="247" stroke="#000000" stroke-width="1" stroke-linecap="square"/>
<text x="102" y="271" fill="#000000" font-size="9" font-family="Arial" >0.20</text>
</svg>
